Coordinates
version=1
nRows=26
nColumns=22
inDegrees=yes

Units are S.I. units (second, meters, Newtons, ...)
If the header above contains a line with 'inDegrees', this indicates whether rotational values are in degrees (yes) or radians (no).

endheader
time	pelvis_tilt	pelvis_list	pelvis_rotation	pelvis_tx	pelvis_ty	pelvis_tz	hip_flexion_r	hip_adduction_r	hip_rotation_r	knee_angle_r	ankle_angle_r	subtalar_angle_r	hip_flexion_l	hip_adduction_l	hip_rotation_l	knee_angle_l	ankle_angle_l	subtalar_angle_l	lumbar_extension	lumbar_bending	lumbar_rotation
      4.24000000	      1.07804814	     -2.75318465	     90.52759464	      0.45715086	      0.87673897	     -0.07955013	     17.94898673	     -2.21118515	     -4.21555906	    -22.91329482	     11.86783356	      0.14907655	     17.13814836	     -8.24538504	      5.20491543	    -67.37631063	      6.11550155	     12.19544662	     -4.85220783	      4.88400400	     13.35525862
      4.25000000	      1.01228466	     -2.58500980	     90.38798330	      0.46006795	      0.87790664	     -0.08435599	     17.26112660	     -2.01020066	     -4.10401365	    -22.58897056	     12.05099185	     -0.03958646	     18.19056776	     -8.51494785	      4.08608964	    -67.85798712	      6.62627858	     10.68826619	     -4.94905852	      4.76567852	     14.08956534
      4.26000000	      0.94015302	     -2.42218945	     90.22947167	      0.46282554	      0.87905559	     -0.08909128	     16.57498769	     -1.83384867	     -4.01275744	    -22.24194902	     12.21141654	     -0.19952899	     19.15368872	     -8.72901772	      3.01418798	    -68.09888371	      7.11421610	      9.39811151	     -5.03755578	      4.65152292	     14.78214854
      4.27000000	      0.86706292	     -2.26671805	     90.06730943	      0.46539645	      0.88018231	     -0.09375688	     15.87563654	     -1.67681879	     -3.92452506	    -21.84382434	     12.34840414	     -0.32915764	     20.03544764	     -8.88964442	      2.00488273	    -68.10641551	      7.55845914	      8.34159107	     -5.11638504	      4.55102519	     15.40965786
      4.28000000	      0.79836088	     -2.11658869	     89.91106821	      0.46776755	      0.88126789	     -0.09835811	     15.17362844	     -1.53883755	     -3.86552359	    -21.42312666	     12.47309762	     -0.42766989	     20.83530611	     -9.00454341	      1.06413388	    -67.88908151	      7.97360874	      7.53099781	     -5.18815884	      4.47151206	     15.97288917
      4.29000000	      0.73285882	     -1.96995206	     89.77313194	      0.46993148	      0.88230380	     -0.10288642	     14.47241992	     -1.42299037	     -3.84461732	    -20.99294242	     12.59383772	     -0.50603018	     21.55665422	     -9.06903374	      0.21144641	    -67.45548122	      8.36125722	      6.90368085	     -5.25694139	      4.40918136	     16.46274954
      4.30000000	      0.66928677	     -1.83325078	     89.65749713	      0.47189026	      0.88327401	     -0.10734630	     13.77790701	     -1.32764110	     -3.84663983	    -20.55139062	     12.70913426	     -0.55312968	     22.20959768	     -9.09128561	     -0.55868995	    -66.81769139	      8.69066421	      6.53186848	     -5.31449367	      4.36307996	     16.87350312
      4.31000000	      0.61114417	     -1.72596887	     89.56403427	      0.47366223	      0.88412584	     -0.11171719	     13.13062662	     -1.24772455	     -3.87784306	    -20.13226900	     12.82011793	     -0.57121550	     22.81940784	     -9.07865697	     -1.23727111	    -65.99272613	      9.00212152	      6.38069828	     -5.34214505	      4.33263184	     17.21476494
      4.32000000	      0.53667365	     -1.60356082	     89.51307142	      0.47517742	      0.88496441	     -0.11605898	     12.45870207	     -1.21302425	     -3.94829669	    -19.70322628	     12.94884485	     -0.58739064	     23.32597086	     -8.99106523	     -1.80211921	    -64.96501232	      9.22985299	      6.29378401	     -5.38049277	      4.30200321	     17.48016463
      4.33000000	      0.45527372	     -1.50049669	     89.48782187	      0.47651434	      0.88570293	     -0.12032727	     11.82541544	     -1.20316991	     -4.03688982	    -19.30374436	     13.08118996	     -0.58608447	     23.77715706	     -8.86633112	     -2.28031112	    -63.76914375	      9.42724535	      6.31896584	     -5.40053314	      4.27017617	     17.66304807
      4.34000000	      0.36969891	     -1.41813843	     89.49113189	      0.47767746	      0.88634301	     -0.12452798	     11.23189140	     -1.21351007	     -4.14055077	    -18.93374064	     13.23021413	     -0.57097983	     24.17516249	     -8.70268469	     -2.64917703	    -62.41683580	      9.58605224	      6.40908950	     -5.39861243	      4.23748605	     17.79696981
      4.35000000	      0.27902485	     -1.34649046	     89.50480245	      0.47869712	      0.88690407	     -0.12866951	     10.67408337	     -1.24130767	     -4.24712371	    -18.60291014	     13.38986260	     -0.54741832	     24.50384200	     -8.51769972	     -2.93894148	    -60.92119595	      9.71681353	      6.51664073	     -5.38877712	      4.20175104	     17.89547433
      4.36000000	      0.18710431	     -1.29963577	     89.52696407	      0.47960090	      0.88735960	     -0.13275487	     10.16935409	     -1.27711389	     -4.34306068	    -18.31400830	     13.55091024	     -0.52595721	     24.78497255	     -8.32563644	     -3.16110156	    -59.30791738	      9.83807153	      6.58681311	     -5.35446957	      4.16241750	     17.95366084
      4.37000000	      0.09281362	     -1.25746790	     89.54649761	      0.48040256	      0.88774762	     -0.13679680	      9.69871439	     -1.32079475	     -4.42020676	    -18.07149776	     13.72278965	     -0.50919725	     24.99195590	     -8.13148120	     -3.33228166	    -57.58816521	      9.94413330	      6.59754087	     -5.31966898	      4.11656183	     17.99460579
      4.38000000	     -0.00150485	     -1.22891624	     89.55258791	      0.48114814	      0.88805404	     -0.14079493	      9.28021631	     -1.36762535	     -4.48868736	    -17.88691459	     13.89256157	     -0.50719050	     25.13595104	     -7.94834021	     -3.47103100	    -55.78028596	     10.04076691	      6.52879088	     -5.27625420	      4.06254796	     18.01969279
      4.39000000	     -0.09249797	     -1.20094421	     89.53778263	      0.48184407	      0.88829671	     -0.14476656	      8.89926443	     -1.41289795	     -4.53156324	    -17.76019225	     14.07730487	     -0.52310027	     25.20211690	     -7.78290295	     -3.59407454	    -53.90362592	     10.12165651	      6.36783839	     -5.23642272	      4.00631875	     18.03816803
      4.40000000	     -0.18015056	     -1.18013460	     89.49069766	      0.48254734	      0.88846612	     -0.14870467	      8.57179237	     -1.45358780	     -4.55794488	    -17.70398466	     14.27035197	     -0.56700106	     25.19613039	     -7.63566827	     -3.70185793	    -51.97251428	     10.18703736	      6.12547465	     -5.19505898	      3.93950504	     18.05558291
      4.41000000	     -0.26419534	     -1.16587730	     89.41056784	      0.48325510	      0.88855663	     -0.15261818	      8.29949986	     -1.49009537	     -4.55902404	    -17.72427109	     14.47587843	     -0.64104221	     25.12030649	     -7.50503318	     -3.79797095	    -50.01160438	     10.23749702	      5.83301169	     -5.14984497	      3.86564684	     18.07352648
      4.42000000	     -0.34270034	     -1.15875649	     89.29060959	      0.48398948	      0.88856594	     -0.15651068	      8.08155274	     -1.51883659	     -4.53346135	    -17.81645207	     14.70013070	     -0.74036432	     24.97530443	     -7.38899233	     -3.87185460	    -48.04223720	     10.27090873	      5.52510453	     -5.09851630	      3.78538647	     18.09993583
      4.43000000	     -0.41737294	     -1.15881032	     89.13222156	      0.48475585	      0.88848900	     -0.16038408	      7.91775590	     -1.54127384	     -4.47720033	    -17.98224511	     14.94309058	     -0.85552864	     24.76496274	     -7.27951249	     -3.90459348	    -46.09026762	     10.28842650	      5.24081652	     -5.03849661	      3.69620648	     18.13440803
      4.44000000	     -0.48702901	     -1.16283437	     88.94222271	      0.48554571	      0.88832673	     -0.16423780	      7.80034826	     -1.55605937	     -4.38315285	    -18.21608998	     15.20406817	     -0.97981336	     24.49068229	     -7.17011130	     -3.87227028	    -44.18185154	     10.29059917	      4.99708070	     -4.97133334	      3.60146584	     18.16949860
      4.45000000	     -0.55210818	     -1.17392751	     88.72258070	      0.48637761	      0.88806933	     -0.16806521	      7.73328176	     -1.56344119	     -4.27134588	    -18.51859399	     15.48548112	     -1.10037868	     24.16187462	     -7.05623223	     -3.74868280	    -42.34540789	     10.26913616	      4.82591012	     -4.89168672	      3.49578227	     18.20773310
      4.46000000	     -0.61293186	     -1.18874673	     88.48766296	      0.48718535	      0.88772447	     -0.17187279	      7.70323243	     -1.56932284	     -4.14170563	    -18.87790512	     15.78662602	     -1.21168027	     23.78280661	     -6.92855941	     -3.51902333	    -40.61003573	     10.22099884	      4.71984476	     -4.80013111	      3.39041686	     18.23614583
      4.47000000	     -0.66740547	     -1.20406276	     88.24360771	      0.48796941	      0.88729719	     -0.17565933	      7.70000488	     -1.57195885	     -4.00798226	    -19.28255205	     16.10893654	     -1.30925061	     23.35779574	     -6.78963656	     -3.17595035	    -39.00466367	     10.12989586	      4.66062237	     -4.69855102	      3.28536072	     18.25225899
      4.48000000	     -0.71414473	     -1.21507051	     87.99159900	      0.48871664	      0.88680504	     -0.17942820	      7.70985998	     -1.57112846	     -3.87355420	    -19.71704769	     16.44878897	     -1.39281287	     22.88828653	     -6.64421044	     -2.73245557	    -37.55625616	      9.98828644	      4.62019855	     -4.59229878	      3.18459979	     18.25075231
      4.49000000	     -0.75007311	     -1.22459790	     87.73927905	      0.48939910	      0.88624831	     -0.18319755	      7.72455138	     -1.56512344	     -3.74302579	    -20.16631380	     16.80208212	     -1.46034784	     22.38596356	     -6.49837801	     -2.21296978	    -36.28779527	      9.80664232	      4.57118131	     -4.47349981	      3.09442456	     18.23379438
